<svg width="17" height="17" viewBox="0 0 17 17" fill="none" xmlns="http://www.w3.org/2000/svg">
<path d="M8.49998 0.583328C6.93422 0.583328 5.40361 1.04763 4.10172 1.91753C2.79983 2.78742 1.78513 4.02384 1.18594 5.47042C0.586743 6.917 0.429967 8.50878 0.735433 10.0445C1.0409 11.5801 1.79489 12.9908 2.90205 14.0979C4.00922 15.2051 5.41984 15.9591 6.95552 16.2645C8.4912 16.57 10.083 16.4132 11.5296 15.814C12.9761 15.2148 14.2126 14.2001 15.0825 12.8983C15.9523 11.5964 16.4167 10.0658 16.4167 8.5C16.4167 7.46036 16.2119 6.43091 15.814 5.47042C15.4162 4.50992 14.833 3.6372 14.0979 2.90207C13.3628 2.16694 12.4901 1.5838 11.5296 1.18595C10.5691 0.788099 9.53962 0.583328 8.49998 0.583328ZM8.49998 14.8333C6.82028 14.8333 5.20937 14.1661 4.02164 12.9783C2.83391 11.7906 2.16665 10.1797 2.16665 8.5C2.1649 7.09348 2.63612 5.72722 3.50457 4.62083L12.3792 13.4954C11.2728 14.3639 9.9065 14.8351 8.49998 14.8333ZM13.4954 12.3792L4.62082 3.50458C5.72721 2.63613 7.09347 2.16491 8.49998 2.16666C10.1797 2.16666 11.7906 2.83392 12.9783 4.02165C14.1661 5.20938 14.8333 6.82029 14.8333 8.5C14.8351 9.90651 14.3638 11.2728 13.4954 12.3792Z" fill="#CFBBEE"/>
</svg>
