<svg width="18" height="19" viewBox="0 0 18 19" fill="none" xmlns="http://www.w3.org/2000/svg">
<g filter="url(#filter0_d_924:2)">
<path d="M13.3025 11.5757L11.483 13.3416C10.5474 14.2025 9.44817 14.8422 8.2591 15.2177L8.74186 17.5953C8.76653 17.7166 8.81789 17.8302 8.8918 17.9268C8.96571 18.0234 9.0601 18.1003 9.16735 18.1512C9.2746 18.2022 9.39171 18.2259 9.50921 18.2203C9.62671 18.2147 9.74132 18.18 9.84379 18.119L12.7727 16.3753C13.185 16.1109 13.507 15.7151 13.6923 15.245C13.8777 14.775 13.9168 14.2549 13.804 13.7598L13.3025 11.5757ZM5.44924 6.94757L7.01576 4.98433L5.06215 4.48678C4.58721 4.31197 4.06838 4.32448 3.60149 4.522C3.13461 4.71952 2.75121 5.08871 2.52211 5.56138L0.871972 8.6488C0.814153 8.75694 0.781249 8.87793 0.775917 9.00197C0.770586 9.12602 0.792977 9.24966 0.841282 9.36288C0.889587 9.47611 0.96245 9.57575 1.05398 9.65375C1.14551 9.73176 1.25315 9.78594 1.36819 9.81191L3.67275 10.3334C4.05481 9.09546 4.65782 7.94618 5.44924 6.94757ZM12.5503 6.97954C12.7728 6.97954 12.9903 6.90989 13.1753 6.77941C13.3603 6.64892 13.5045 6.46346 13.5897 6.24647C13.6748 6.02949 13.6971 5.79072 13.6537 5.56037C13.6103 5.33001 13.5031 5.11842 13.3458 4.95235C13.1885 4.78627 12.988 4.67317 12.7698 4.62735C12.5516 4.58153 12.3254 4.60505 12.1198 4.69493C11.9142 4.78481 11.7385 4.93701 11.6149 5.1323C11.4913 5.32758 11.4253 5.55717 11.4253 5.79204C11.4254 6.10695 11.544 6.40892 11.7549 6.6316C11.9659 6.85427 12.252 6.97942 12.5503 6.97954Z" fill="#A768FE"/>
</g>
<g filter="url(#filter1_d_924:2)">
<path d="M16.9508 1.63241C16.9169 1.49682 16.8496 1.37313 16.7557 1.27398C16.6618 1.17483 16.5446 1.10376 16.4161 1.06804C14.8776 0.6459 13.2574 0.691167 11.7422 1.19863C10.227 1.70609 8.87843 2.6551 7.85191 3.9363L5.4492 6.94757C4.2489 8.45872 3.48746 10.3035 3.25633 12.2604C3.24151 12.3807 3.25305 12.5029 3.29007 12.6177C3.32708 12.7325 3.38858 12.8368 3.46983 12.9226L5.7949 15.3768C5.86451 15.4503 5.94718 15.5087 6.03816 15.5485C6.12914 15.5883 6.22666 15.6088 6.32515 15.6088C6.34676 15.6088 6.36837 15.6076 6.39034 15.6057C8.27267 15.4415 10.0565 14.6484 11.4828 13.3416L14.2302 10.6752C15.4482 9.59444 16.3506 8.17087 16.8322 6.57004C17.3138 4.96922 17.355 3.25694 16.9508 1.63241ZM12.5503 6.97951C12.3278 6.97951 12.1102 6.90986 11.9252 6.77938C11.7402 6.64889 11.596 6.46343 11.5109 6.24644C11.4257 6.02946 11.4035 5.79069 11.4469 5.56034C11.4903 5.32998 11.5974 5.11839 11.7548 4.95232C11.9121 4.78624 12.1126 4.67314 12.3308 4.62732C12.549 4.5815 12.7752 4.60502 12.9808 4.6949C13.1863 4.78478 13.362 4.93698 13.4857 5.13227C13.6093 5.32755 13.6753 5.55714 13.6753 5.79201C13.6752 6.10692 13.5566 6.4089 13.3456 6.63157C13.1347 6.85425 12.8486 6.97939 12.5503 6.97951Z" fill="#CFBBEE"/>
</g>
<defs>
<filter id="filter0_d_924:2" x="-3.22485" y="4.36419" width="21.092" height="21.8569" filterUnits="userSpaceOnUse" color-interpolation-filters="sRGB">
<feFlood flood-opacity="0" result="BackgroundImageFix"/>
<feColorMatrix in="SourceAlpha" type="matrix" values="0 0 0 0 0 0 0 0 0 0 0 0 0 0 0 0 0 0 127 0" result="hardAlpha"/>
<feOffset dy="4"/>
<feGaussianBlur stdDeviation="2"/>
<feComposite in2="hardAlpha" operator="out"/>
<feColorMatrix type="matrix" values="0 0 0 0 0 0 0 0 0 0 0 0 0 0 0 0 0 0 0.25 0"/>
<feBlend mode="normal" in2="BackgroundImageFix" result="effect1_dropShadow_924:2"/>
<feBlend mode="normal" in="SourceGraphic" in2="effect1_dropShadow_924:2" result="shape"/>
</filter>
<filter id="filter1_d_924:2" x="-0.749939" y="0.781616" width="21.9763" height="22.8272" filterUnits="userSpaceOnUse" color-interpolation-filters="sRGB">
<feFlood flood-opacity="0" result="BackgroundImageFix"/>
<feColorMatrix in="SourceAlpha" type="matrix" values="0 0 0 0 0 0 0 0 0 0 0 0 0 0 0 0 0 0 127 0" result="hardAlpha"/>
<feOffset dy="4"/>
<feGaussianBlur stdDeviation="2"/>
<feComposite in2="hardAlpha" operator="out"/>
<feColorMatrix type="matrix" values="0 0 0 0 0 0 0 0 0 0 0 0 0 0 0 0 0 0 0.25 0"/>
<feBlend mode="normal" in2="BackgroundImageFix" result="effect1_dropShadow_924:2"/>
<feBlend mode="normal" in="SourceGraphic" in2="effect1_dropShadow_924:2" result="shape"/>
</filter>
</defs>
</svg>
